<?xml version="1.0" encoding="UTF-8"?>
<!-- Created with Inkscape (http://www.inkscape.org/) -->
<svg width="128" height="128" version="1.1" viewBox="0 0 128 128" xmlns="http://www.w3.org/2000/svg" xmlns:cc="http://creativecommons.org/ns#" xmlns:dc="http://purl.org/dc/elements/1.1/" xmlns:rdf="http://www.w3.org/1999/02/22-rdf-syntax-ns#">
 <defs>
  <mask id="mask4222-0" maskUnits="userSpaceOnUse">
   <rect y="652.28" width="300.06" height="400.78" ry="40" fill="#ff3737"/>
  </mask>
  <filter id="filter4198-8" x="-.024915" y="-.054278" width="1.0498" height="1.1086" color-interpolation-filters="sRGB">
   <feGaussianBlur result="blur" stdDeviation="2.51 2.51"/>
  </filter>
  <mask id="mask4216-0" maskUnits="userSpaceOnUse">
   <rect transform="scale(-1)" x="-451.94" y="-1325.6" width="300.06" height="400.78" ry="40" fill="#ff3737"/>
  </mask>
 </defs>
 <metadata>
  <rdf:RDF>
   <cc:Work rdf:about="">
    <dc:format>image/svg+xml</dc:format>
    <dc:type rdf:resource="http://purl.org/dc/dcmitype/StillImage"/>
   </cc:Work>
  </rdf:RDF>
 </metadata>
 <g transform="translate(0 -652.36)">
  <g transform="matrix(.35481 0 0 .31192 10.768 450.4)">
   <rect y="652.28" width="300.06" height="400.78" ry="40" fill="#f5f0eb"/>
   <path d="m-4.7688 775.07c-4.8814-33.076-12.077-100.83 3.4899-123.01 20.277-26.12 234.78-20.433 264.59 1.8459 12.9 8.7386-192.96 9.2112-216.21 37.835-22.708 27.368-46.449 126.44-51.868 83.326z" fill="#fff" fill-rule="evenodd" filter="url(#filter4198-8)" mask="url(#mask4222-0)"/>
   <path transform="rotate(180 225.97 988.94)" d="m151.74 1025c-3.3268-9.3138-10.248-68.454 5.3182-90.627 20.277-26.12 219.44-16.458 231.56-9.9318 11.074 5.317-178.6 0.0589-204.85 34.866-21.593 30.001-26.501 82.178-32.022 65.692z" fill-opacity=".19608" fill-rule="evenodd" filter="url(#filter4198-8)" mask="url(#mask4216-0)"/>
  </g>
  <g transform="matrix(.23379 0 0 .20553 -34.294 589.58)" fill="#b93c3c" fill-rule="evenodd">
   <path transform="matrix(1.3087 0 0 1.3087 219.31 352.3)" d="m233.73 85.414c-62.018 16.682-86.272 21.909-166.16 42.854-5.4252-0.0965-16.534-0.92756-21.672-9.5078-4.7582-5.919-9.7031 0.68112-9.4376 6.7422 0.36506 8.3341 0.59837 15.292 4.4806 19.201 21.664 19.95 29.078 41.322 32.222 65.74-0.33085 5.2111-4.6228 10.003 3.1934 9.6484 7.8691-0.58359 84.264-6.6294 140.41-1.6934 4.6418 0.47659 5.4594-3.6814 5.1504-5.3906-2.6425-14.616 24.338-61.362 33.375-80.475 1.8624-3.9391 11.818-4.4343 13.934-4.9394-0.13937 0.0348 2.8621-1.7244 1.0957-3.9141-10.719-13.288-32.865-39.444-36.598-38.266zm-21.277 34.902c9.0866 0.0687 13.42 2.431 9.8301 8.3496-11.115 22.31-24.243 65.936-28.215 65.264-61.306-0.41953-87.927 4.0617-94.016 2.0469-2.1991-0.81536-5.4118-24.899-19.333-42.18-2.1894-2.7177-1.2864-4.6953 2.2539-5.5566 20.629-4.6163 99.797-28.148 129.48-27.924z"/>
   <path d="m367.91 395.1c0.37549 4.1611-0.17568 12.407 6.2908 14.786 5.6162 0.58559 19.753 11.446 16.954 28.571 0.0928 187.93 3.3231 200.16 0.3131 345.46-5.6261 52.577 6.734 80.47 10.822 86.965 2.9354 6.5902 6.1265 5.517 7.6042 1.4386 12.979-35.82 18.661-12.554 14.702-102.9-0.58086-150.14-2.8864-315.65 19.066-327.81 8.6712-6.9622 20.055-28.688 17.348-33.728 3.1032-4.9749-50.622-54.04-55.125-49.497-7.3682 8.0397-36.646 21.96-37.975 36.719z"/>
  </g>
 </g>
</svg>
